<?xml version="1.0" encoding="utf-8"?>
<!-- Generator: Adobe Illustrator 25.0.1, SVG Export Plug-In . SVG Version: 6.00 Build 0)  -->
<svg version="1.1" id="Layer_1" xmlns="http://www.w3.org/2000/svg" xmlns:xlink="http://www.w3.org/1999/xlink" x="0px" y="0px"
	 viewBox="0 0 640 78" style="enable-background:new 0 0 640 78;" xml:space="preserve">
<style type="text/css">
	.st0{fill:#FFFFFF;}
	.st1{fill:#51A620;}
</style>
<g>
	<polygon class="st0" points="298,67 298,19 279.1,19 276.5,13 321,13 321,19 304,19 304,67 	"/>
	<rect x="342" y="13" class="st0" width="6" height="54"/>
	<polygon class="st0" points="375,67 375,13 381,13 381,62 406,62 406,67 	"/>
	<polygon class="st0" points="428,67 428,13 434,13 434,62 459,62 459,67 	"/>
	<g>
		<rect x="481" y="13" class="st1" width="6" height="54"/>
	</g>
	<g>
		<g>
			<path class="st1" d="M536.2,68.2c-7.6,0-13.7-2.6-18.1-7.7c-4.3-5-6.5-12-6.5-20.6s2.2-15.5,6.6-20.5c4.4-5,10.5-7.6,18.1-7.6
				s13.7,2.6,18.1,7.6c4.3,5,6.5,11.9,6.5,20.5s-2.2,15.5-6.5,20.5C549.9,65.6,543.8,68.2,536.2,68.2z M536.2,17.4
				c-5.9,0-10.6,1.9-13.8,5.8s-4.9,9.5-4.9,16.8s1.6,13,4.8,16.9s7.7,5.8,13.8,5.8s10.6-1.9,13.8-5.8s4.8-9.6,4.8-17
				c0-7.3-1.6-13-4.8-16.9C546.8,19.3,542.3,17.4,536.2,17.4z"/>
		</g>
	</g>
	<path class="st0" d="M620,13h6v54h-6.1l-29-43.6c0.2,4.1,0.1,6.5,0.1,8.8V67h-6V13h6l29,43.5"/>
	<path class="st0" d="M201,13h-6.8l0,0L176,50.2l0,0l0,0l0,0L157.8,13H150v54h6V26.9c0-1.7,0-3.5-0.1-5.1L174.1,59h1.9h1.7h0.3
		l18-37c-0.1,1.4,0.1,3,0.1,4.4v0.4V67h5h1V13H201z"/>
	<path class="st0" d="M262.2,67h6.3l-21.6-55h-3.7l-22.1,55h6.2l6.8-17h21.2L262.2,67z M243.8,25.9c0.4-1.1,0.8-2.2,1.2-3.4
		c0.4,1.3,0.8,2.4,1.2,3.2l6.9,18.3h-16.4L243.8,25.9z"/>
	<g>
		<g>
			<g>
				<polygon class="st1" points="29.5,67 73.7,22.8 64.4,13.4 10.9,67 				"/>
			</g>
			<g>
				<polygon class="st1" points="66.7,67 83,50.7 99.3,67 118,67 83,32.1 48.1,67 				"/>
			</g>
		</g>
	</g>
</g>
</svg>
